# xmcd CD database file
#
# Track frame offsets:
#	150
#	13502
#	25199
#	54245
#	70749
#	83754
#	100167
#	112379
#	124629
#	146230
#	166750
#	177408
#	194991
#	205658
#	218877
#	235468
#	245722
#	258766
#	272559
#	289226
#	308863
#	329804
#
# Disc length: 4646 seconds
#
# Revision: 4
# Processed by: cddbd v1.5.2PL0 Copyright (c) Steve Scherf et al.
# Submitted via: CDex 1.51
#
DISCID=51122416
DTITLE=Various Artist - ZM-TPMH-Disc-10
DYEAR=1900
DGENRE=Blues
TTITLE0=Tom Jones - Thunderball
TTITLE1=Tom Jones - Till
TTITLE2=Elton John - Tiny Dancer
TTITLE3=Rod Stewart - Tonight's The Night (gonna be alright)
TTITLE4=Cliff Richard - Travellin' Light
TTITLE5=Phil Collins - Two Hearts
TTITLE6=Elvis Presley - Viva Las Vegas
TTITLE7=Elvis Presley - Way Down
TTITLE8=Billy Joel - We Didn't Start The Fire
TTITLE9=Cliff Richard - We Don't Talk Anymore
TTITLE10=Cliff Richard - We Say Yeah
TTITLE11=Barry Manilow - Weekend In New England
TTITLE12=Tom Jones - What's New Pussycat
TTITLE13=Cliff Richard - Willie And The Hand Jive
TTITLE14=Cliff Richard - Wired For Sound
TTITLE15=Elvis Presley - Wooden Heart
TTITLE16=Neil Diamond - Yesterday's Songs
TTITLE17=Phil Collins - You Can't Hurry Love
TTITLE18=Roy Orbison - You Got It
TTITLE19=Rod Stewart - You Wear It Well
TTITLE20=Rod Stewart - You're In My Heart
TTITLE21=Elton John - Your Song
EXTD=
EXTT0=
EXTT1=
EXTT2=
EXTT3=
EXTT4=
EXTT5=
EXTT6=
EXTT7=
EXTT8=
EXTT9=
EXTT10=
EXTT11=
EXTT12=
EXTT13=
EXTT14=
EXTT15=
EXTT16=
EXTT17=
EXTT18=
EXTT19=
EXTT20=
EXTT21=
PLAYORDER=
